<svg id="Capa_1" enable-background="new 0 0 512 512" height="512" viewBox="0 0 512 512" width="512" xmlns="http://www.w3.org/2000/svg"><g><g><g><g><g><g><g><path d="m502 471.097h-147.95c-5.523 0-10-4.477-10-10v-56.811c0-32.209 26.111-58.32 58.32-58.32h51.31c32.209 0 58.32 26.111 58.32 58.32v56.811c0 5.523-4.477 10-10 10z" fill="#27d1b3"/><g><g><path d="m452.14 424.211-20.056 17.631c-2.322 2.041-5.798 2.041-8.12 0l-20.056-17.631c-1.738-1.528-2.471-3.903-1.897-6.145l18.473-72.1h15.079l18.473 72.1c.576 2.242-.157 4.617-1.896 6.145z" fill="#fb4a59"/></g></g><path d="m512 404.286v56.811c0 5.523-4.477 10-10 10h-20.354v-66.811c0-32.201-26.118-58.319-58.319-58.319h30.354c32.209-.001 58.319 26.11 58.319 58.319z" fill="#20b69f"/><g><g><path d="m428.025 351.11c-26.258 0-47.545-21.286-47.545-47.545v-17.163c0-26.258 21.286-47.545 47.545-47.545 26.258 0 47.545 21.286 47.545 47.545v17.163c0 26.259-21.287 47.545-47.545 47.545z" fill="#ffcec0"/><path d="m475.571 286.408v17.158c0 26.258-21.287 47.545-47.545 47.545-5.251 0-10.316-.855-15.046-2.432 18.882-6.307 32.485-24.12 32.485-45.112v-17.158c0-13.122-5.318-25.015-13.924-33.621-5.158-5.158-11.479-9.127-18.561-11.492 4.73-1.577 9.795-2.432 15.046-2.432 13.122 0 25.015 5.318 33.621 13.924 8.605 8.605 13.924 20.497 13.924 33.62z" fill="#fdb0a0"/></g></g></g></g></g></g><g><g><g><path d="m157.95 471.097h-147.95c-5.523 0-10-4.477-10-10v-56.811c0-32.209 26.111-58.32 58.32-58.32h51.31c32.209 0 58.32 26.111 58.32 58.32v56.811c0 5.523-4.477 10-10 10z" fill="#fb4a59"/><g><g><path d="m108.091 424.211-20.056 17.631c-2.322 2.041-5.798 2.041-8.12 0l-20.056-17.631c-1.738-1.528-2.471-3.903-1.897-6.145l18.473-72.1h15.079l18.473 72.1c.575 2.242-.158 4.617-1.896 6.145z" fill="#f8f3f1"/></g></g><path d="m167.95 404.286v56.811c0 5.523-4.477 10-10 10h-20.354v-66.811c0-32.201-26.118-58.319-58.319-58.319h30.354c32.209-.001 58.319 26.11 58.319 58.319z" fill="#f82f40"/><g><g><path d="m83.975 351.11c-26.258 0-47.545-21.286-47.545-47.545v-17.163c0-26.258 21.286-47.545 47.545-47.545 26.258 0 47.545 21.286 47.545 47.545v17.163c0 26.259-21.287 47.545-47.545 47.545z" fill="#ffcec0"/><path d="m131.521 286.408v17.158c0 26.258-21.287 47.545-47.545 47.545-5.251 0-10.316-.855-15.046-2.432 18.882-6.307 32.485-24.12 32.485-45.112v-17.158c0-13.122-5.318-25.015-13.924-33.621-5.158-5.158-11.479-9.127-18.561-11.492 4.73-1.577 9.795-2.432 15.046-2.432 13.122 0 25.015 5.318 33.621 13.924 8.606 8.605 13.924 20.497 13.924 33.62z" fill="#fdb0a0"/></g></g></g></g></g></g><g><path d="m363.999 503.546h-215.998c-5.523 0-10-4.477-10-10v-92.649c0-45.259 36.69-81.949 81.949-81.949h72.1c45.259 0 81.949 36.69 81.949 81.949v92.649c0 5.523-4.477 10-10 10z" fill="#0d5f7f"/><path d="m373.999 400.897v92.649c0 5.523-4.477 10-10 10h-32.653v-102.648c0-45.248-36.701-81.949-81.949-81.949h42.653c45.26 0 81.949 36.689 81.949 81.948z" fill="#094c66"/><path d="m318.928 323.466-62.928 119.853-62.928-119.854c8.419-2.915 17.472-4.51 26.886-4.51h72.084c9.413.001 18.467 1.596 26.886 4.511z" fill="#fff"/><path d="m288.115 382.141-32.115 61.178-32.115-61.178 23.13-63.185h17.97z" fill="#fb4a59"/><g><g><circle cx="177.079" cy="240.359" fill="#fdb0a0" r="25.304"/></g><g><circle cx="334.921" cy="240.359" fill="#f69583" r="25.304"/></g><g><path d="m256 326.177c-36.897 0-66.809-29.911-66.809-66.808v-24.117c0-36.897 29.911-66.808 66.808-66.808 36.897 0 66.808 29.911 66.808 66.808v24.117c.001 36.897-29.91 66.808-66.807 66.808z" fill="#ffcec0"/><path d="m322.811 235.252v24.112c0 36.91-29.915 66.809-66.81 66.809-5.525 0-10.911-.665-16.049-1.95 29.141-7.181 50.745-33.49 50.745-64.859v-24.112c0-18.447-7.475-35.146-19.577-47.248-8.465-8.465-19.175-14.656-31.169-17.612 5.138-1.285 10.524-1.95 16.049-1.95 18.447 0 35.146 7.475 47.248 19.562 12.088 12.102 19.563 28.8 19.563 47.248z" fill="#fdb0a0"/></g><path d="m344.673 217.233c-13.381 1.328-40.062 2.762-62.935-3.465-16.262-4.427-27.415-19.388-27.415-36.241v-25.498c0-12.928 10.48-23.409 23.409-23.409h17.61c31.983 0 57.91 25.927 57.91 57.91v21.227c0 4.899-3.704 8.992-8.579 9.476z" fill="#7a7179"/><path d="m353.255 186.536v21.227c0 4.887-3.704 8.985-8.59 9.465-9.225.926-24.76 1.886-41.032.343 1.355-.12 2.606-.223 3.772-.343 4.87-.48 8.573-4.578 8.573-9.465v-21.227c0-27.863-19.65-51.114-45.833-56.652 2.366-.823 4.921-1.269 7.579-1.269h17.609c31.996 0 57.922 25.926 57.922 57.921z" fill="#685e67"/><path d="m167.243 219.824c15.155 1.6 47.886 3.681 75.804-3.918 19.169-5.218 32.316-22.854 32.316-42.72v-30.056c0-15.24-12.354-27.594-27.594-27.594h-20.758c-37.701 0-68.263 30.562-68.263 68.263v26.56c0 4.861 3.66 8.954 8.495 9.465z" fill="#9b8f99"/><path d="m275.358 143.121v30.058c0 19.873-13.151 37.517-32.304 42.729-23.062 6.276-49.399 5.95-66.391 4.75 9.585-.755 19.479-2.212 28.823-4.75 19.17-5.212 32.321-22.856 32.321-42.729v-30.058c0-12.997-9.002-23.902-21.107-26.817 3.361-.514 6.807-.772 10.305-.772h20.764c15.244 0 27.589 12.363 27.589 27.589z" fill="#8b8088"/></g><g><path d="m248.274 503.486v-60.166c0-4.267 3.459-7.726 7.726-7.726s7.726 3.459 7.726 7.726v60.166z" fill="#094c66"/></g><g id="XMLID_1457_"><path d="m285.057 466.404c-.008 0-.015 0-.022 0l-.178-.001c-4.267-.012-7.716-3.481-7.704-7.748.012-4.26 3.469-7.705 7.726-7.705h.023.178c4.267.012 7.716 3.481 7.704 7.749-.013 4.26-3.471 7.705-7.727 7.705z" fill="#fff"/></g></g></g><g><g><circle cx="136.533" cy="102.661" fill="#27d1b3" r="94.207"/><path d="m230.744 102.657c0 52.029-42.18 94.209-94.209 94.209-8.657 0-17.033-1.163-24.992-3.354 50.032-.165 90.545-40.784 90.545-90.855s-40.522-90.69-90.564-90.845c7.969-2.191 16.354-3.354 25.011-3.354 52.029 0 94.209 42.17 94.209 94.199z" fill="#20b69f"/></g><g><path d="m111.343 148.755-33.808-33.808c-1.893-1.893-1.893-4.962 0-6.855l13.963-13.962c1.893-1.893 4.962-1.893 6.855 0l19.846 19.846 56.514-56.514c1.893-1.893 4.962-1.893 6.855 0l13.962 13.962c1.893 1.893 1.893 4.962 0 6.855l-70.477 70.476c-3.786 3.786-9.924 3.786-13.71 0z" fill="#bcea73"/></g></g></g></svg>